{"title":"2010 Melbourne International Comedy Festival Gala (Theora, Oxspa","uid":5454975,"size":737623857,"categoryP":"video","categoryS":"tv_shows","magnet":"?xt=urn:btih:63254c7515adaba3813cf1225e9c0a90af137181&amp;dn=2010+Melbourne+International+Comedy+Festival+Gala+%28Theora%2C+Oxspa&amp;tr=udp%3A%2F%2Ftracker.openbittorrent.com%3A80&amp;tr=udp%3A%2F%2Fopen.demonii.com%3A1337&amp;tr=udp%3A%2F%2Ftracker.coppersurfer.tk%3A6969&amp;tr=udp%3A%2F%2Fexodus.desync.com%3A6969","seeders":0,"leechers":1,"uploader":"weeblpie","files":1,"time":1269293699,"description":"The 2010 Melbourne International Comedy Festival Gala.\n\nThis has been CLEANSED of all advertising including the Oxspam. Originally aired over 2 hours and 20 minutes, it has been cut down to 1 hour, 34 minutes of actual comedic content.\n\nEnjoy.\n\nGeneral\nComplete name                    : 2010 Melbourne Comedy Festival Gala.mkv\nFormat                           : Matroska\nFile size                        : 703 MiB\nDuration                         : 1h 34mn\nOverall bit rate                 : 1 036 Kbps\nWriting application              : HandBrake 0.9.4\n\nVideo\nID                               : 1\nFormat                           : Theora\nCodec ID                         : V_THEORA\nDuration                         : 1h 34mn\nBit rate                         : 935 Kbps\nNominal bit rate                 : 946 Kbps\nWidth                            : 720 pixels\nHeight                           : 400 pixels\nDisplay aspect ratio             : 16:9\nFrame rate                       : 25.000 fps\nBits/(Pixel*Frame)               : 0.130\nStream size                      : 635 MiB (90%)\nWriting library                  : Xiph.Org libtheora 1.1 20090822 (Thusnelda)\n\nAudio\nID                               : 2\nFormat                           : Vorbis\nFormat settings, Floor           : 1\nCodec ID                         : A_VORBIS\nDuration                         : 1h 34mn\nBit rate mode                    : Constant\nBit rate                         : 80.0 Kbps\nChannel(s)                       : 2 channels\nSampling rate                    : 48.0 KHz\nResolution                       : 16 bits\nStream size                      : 54.3 MiB (8%)\nWriting library                  : aoTuV Beta 5 (UTC 2006-10-24)\nLanguage                         : Unknown\n","torrent":{"xt":"urn:btih:63254c7515adaba3813cf1225e9c0a90af137181","amp;dn":"2010+Melbourne+International+Comedy+Festival+Gala+%28Theora%2C+Oxspa","amp;tr":["udp%3A%2F%2Ftracker.openbittorrent.com%3A80","udp%3A%2F%2Fopen.demonii.com%3A1337","udp%3A%2F%2Ftracker.coppersurfer.tk%3A6969","udp%3A%2F%2Fexodus.desync.com%3A6969"],"infoHash":"63254c7515adaba3813cf1225e9c0a90af137181","infoHashBuffer":{"type":"Buffer","data":[99,37,76,117,21,173,171,163,129,60,241,34,94,156,10,144,175,19,113,129]},"announce":[],"urlList":[]}}